<svg width="32" height="31.993" version="1.1" viewBox="-48.583 -136.23 11.258 10.099" xmlns="http://www.w3.org/2000/svg">
 <g stroke-width=".018766">
  <path d="m-45.608-130.33h-2.9704c5.63e-4 0.0146 9.38e-4 0.0291 0.0017 0.0435 0.0011 0.028 0.0032 0.0557 0.0049 0.0837 7.5e-4 0.012 0.0013 0.024 0.0023 0.0358 0.0023 0.0323 0.0051 0.0646 0.0081 0.0966 7.51e-4 7e-3 0.0013 0.0146 0.0021 0.0216 0.0034 0.0358 0.0073 0.0717 0.01145 0.10715 1.88e-4 3e-3 5.63e-4 7e-3 0.0011 0.0103 0.0047 0.0383 0.0096 0.0768 0.0152 0.11485 0 5.6e-4 0 1e-3 1.87e-4 1e-3a4.9926 4.9926 0 0 0 0.1535 0.70184c3.76e-4 9.4e-4 7.51e-4 2e-3 9.39e-4 3e-3 0.0107 0.0364 0.02196 0.0724 0.0334 0.10827 7.5e-4 2e-3 0.0015 4e-3 0.0021 6e-3 5.63e-4 2e-3 0.0013 4e-3 0.0021 6e-3 0.01051 0.0325 0.02158 0.0647 0.03265 0.0972 0.0028 8e-3 0.0056 0.0163 0.0086 0.0246 0.0099 0.028 0.02008 0.0559 0.03059 0.0841 0.0049 0.0126 0.0096 0.0251 0.01426 0.0379 0.0092 0.0233 0.01801 0.0463 0.02721 0.0694 0.0069 0.0174 0.01407 0.0349 0.02139 0.0522 0.0075 0.0182 0.01501 0.036 0.02271 0.0542 0.0094 0.0221 0.01933 0.0441 0.02909 0.0662 0.0058 0.0131 0.01182 0.0261 0.01764 0.0392 0.01201 0.0265 0.02439 0.0529 0.03697 0.0792 0.0041 8e-3 0.0081 0.0169 0.0122 0.0251 0.01464 0.0304 0.02946 0.0602 0.04447 0.0901 0.0026 5e-3 0.0047 9e-3 0.0071 0.0137 0.01689 0.033 0.03415 0.0659 0.05198 0.0985 7.51e-4 2e-3 0.0017 3e-3 0.0023 5e-3 0.0038 7e-3 0.0079 0.0133 0.01163 0.0201l2.5369-1.5281 0.0094-6e-3c-0.10002-0.21093-0.16232-0.43537-0.18559-0.66337z" fill="#93d500"/>
  <path d="m-44.878-128.97-0.0071 7e-3 -2.0924 2.0922c0.0107 0.01 0.02139 0.0203 0.03246 0.0298 0.01952 0.0178 0.03941 0.0353 0.05911 0.0527 0.01032 9e-3 0.02027 0.018 0.03059 0.027 0.02364 0.0204 0.04766 0.0403 0.0715 0.0604 0.0066 5e-3 0.01276 0.0107 0.01933 0.0161a4.7961 4.7961 0 0 0 0.09214 0.0739c0.02965 0.0235 0.05949 0.0462 0.08989 0.0691 0.0013 7.5e-4 0.0023 1e-3 0.0034 2e-3a5.0007 5.0007 0 0 0 0.39145 0.2646c0.0045 3e-3 0.0092 6e-3 0.01389 9e-3 0.02571 0.0152 0.05123 0.0304 0.07713 0.0454l0.04729 0.027c0.01501 9e-3 0.02984 0.0169 0.04485 0.0251 0.02721 0.0148 0.05442 0.0297 0.08182 0.0441 0.0038 2e-3 0.0075 4e-3 0.01145 6e-3 0.076 0.0398 0.15332 0.0768 0.23138 0.1124l0.07431-0.18034 1.0524-2.5553 0.0038-9e-3c-0.11485-0.0616-0.225-0.13436-0.32859-0.21918z" fill="#4d5a31"/>
  <path d="m-45.096-129.18a1.792 1.792 0 0 1-0.06531-0.0769c-0.01877-0.0231-0.03678-0.0463-0.05423-0.07-0.02008-0.027-0.0396-0.0544-0.05817-0.0822-0.01858-0.028-0.03697-0.0561-0.05423-0.0846l-2.5401 1.53c0.03903 0.0649 0.07957 0.12798 0.12123 0.19029 0.0013 2e-3 0.0026 5e-3 0.0041 7e-3 3.76e-4 9.4e-4 9.39e-4 2e-3 0.0015 2e-3 0.0013 2e-3 0.0026 4e-3 0.0039 6e-3 1.87e-4 1.8e-4 3.75e-4 3.7e-4 3.75e-4 7.5e-4 0.0034 5e-3 0.0068 0.01 0.01013 0.0148 1.88e-4 1.9e-4 3.76e-4 5.7e-4 7.51e-4 9.4e-4 3.75e-4 3.8e-4 1.88e-4 1.9e-4 1.88e-4 3.8e-4 0.0441 0.0651 0.08951 0.12929 0.13624 0.19197 9.39e-4 1e-3 0.0021 3e-3 3e-3 4e-3 0.0011 1e-3 0.0021 3e-3 3e-3 4e-3 0.02045 0.0268 0.04072 0.0537 0.06174 0.0803 0.0028 4e-3 0.0054 7e-3 0.0084 0.0103 0.02139 0.0276 0.04335 0.0548 0.06568 0.0816 0.0053 6e-3 0.0107 0.0128 0.01595 0.0193 0.02008 0.024 0.04016 0.0479 0.06061 0.0715 0.0088 0.0101 0.01783 0.0204 0.02683 0.0304 0.01745 0.0199 0.03472 0.0398 0.05254 0.0593 0.0098 0.0107 0.01989 0.0216 0.02984 0.0323 0.0045 5e-3 9e-3 0.01 0.0137 0.0148 0.01295 0.0141 0.0259 0.0282 0.03903 0.042 0.0053 5e-3 0.01088 0.0109 0.01614 0.0165 0.02308 0.024 0.04654 0.0482 0.07018 0.0719l2.0956-2.0952c-0.02402-0.024-0.04654-0.0488-0.06868-0.0736z" fill="#6ba43a"/>
  <path d="m-42.318-128.97c-0.02308 0.0186-0.04635 0.0368-0.07 0.0542l0.0051 9e-3 1.5279 2.5358c0.07075-0.0462 0.14074-0.0938 0.20905-0.14394 0.14788-0.10903 0.29087-0.22725 0.4288-0.35448l-2.0926-2.0922z" fill="#4d5a31"/>
  <path d="m-41.077-126.35-0.05179-0.0861-1.4262-2.3669c-0.0289 0.0173-0.05836 0.033-0.08782 0.0488-0.02984 0.0161-0.05967 0.031-0.09007 0.0454-0.27398 0.12986-0.57048 0.19629-0.86754 0.19629-0.1946 0-0.38902-0.0282-0.57705-0.0843-0.03209-0.01-0.06343-0.0221-0.09495-0.0334-0.03171-0.0111-0.0638-0.0208-0.09495-0.0336l-1.0516 2.5536-0.0411 0.10002-0.03528 0.0858-1.88e-4 3.8e-4c0.0026 1e-3 0.0054 2e-3 0.0081 3e-3 3e-3 1e-3 0.0058 2e-3 0.0086 3e-3h3.75e-4c7.51e-4 3.7e-4 0.0015 5.6e-4 0.0021 7.5e-4 0.02477 0.0103 0.04973 0.019 0.07469 0.0287 0.03134 0.0122 0.06249 0.0246 0.09383 0.036 0.01614 6e-3 0.0319 0.0126 0.04785 0.0182h1.87e-4a5.0183 5.0183 0 0 0 1.0169 0.2434c0.0137 2e-3 0.02702 4e-3 0.04072 5e-3 0.01407 2e-3 0.02834 3e-3 0.0426 5e-3 0.02665 3e-3 0.0533 6e-3 0.08013 9e-3l0.01989 2e-3c0.03284 3e-3 0.06568 6e-3 0.09833 8e-3 0.01126 9.4e-4 0.02252 1e-3 0.03359 2e-3 0.02871 2e-3 0.05742 4e-3 0.08613 5e-3 0.01764 1e-3 0.03528 1e-3 0.05292 2e-3 0.02289 7.5e-4 0.0456 2e-3 0.06849 2e-3 0.03284 7.5e-4 0.06605 9.4e-4 0.09908 1e-3 0.0079 0 0.01558 1.8e-4 0.02346 3.7e-4 0.2768 0 0.55359-0.0231 0.82738-0.0691 0.0045-7.5e-4 0.0092-2e-3 0.01389-2e-3 0.0289-5e-3 0.0578-0.0105 0.0867-0.0158 0.01651-3e-3 0.03322-6e-3 0.04935-0.01 0.01689-4e-3 0.03397-7e-3 0.05086-0.0107 0.02815-6e-3 0.0563-0.012 0.08463-0.0186 0.0051-1e-3 0.01013-2e-3 0.0152-4e-3 0.41622-0.0968 0.81819-0.24695 1.1958-0.44568v-1.9e-4c0.02477-0.0129 0.04898-0.0278 0.07356-0.0413 0.02927-0.016 0.05836-0.0326 0.08764-0.0494 0.02008-0.0114 0.04053-0.0221 0.06061-0.0341 1.88e-4 -1.9e-4 3.75e-4 -3.8e-4 5.63e-4 -3.8e-4h1.88e-4c3.75e-4 -1.9e-4 5.63e-4 -3.7e-4 9.38e-4 -5.6e-4l3.75e-4 -3.8e-4 -0.0038-6e-3 0.0038 6e-3c1.88e-4 0 3.75e-4 -1.8e-4 5.63e-4 -1.8e-4 3.75e-4 -1.9e-4 5.63e-4 -3.8e-4 9.38e-4 -5.7e-4 0.0011-7.5e-4 0.0023-1e-3 0.0034-2e-3 0.0064-4e-3 0.01295-8e-3 0.01952-0.0116zm-3.7995-5.7465c0.02308-0.0188 0.04654-0.0368 0.07-0.0544l-0.0051-9e-3 -1.5279-2.536c-0.07094 0.0464-0.14093 0.0942-0.20943 0.14431-0.14769 0.10884-0.29087 0.22687-0.42842 0.35392l2.0926 2.0924z" fill="#93d500"/>
  <path d="m-47.123-134.06c-0.02383 0.0238-0.04635 0.0484-0.06962 0.0724-0.02308 0.0242-0.04673 0.0482-0.06943 0.0726a4.9946 4.9946 0 0 0-0.42336 0.52469c-0.0062 8e-3 -0.0122 0.0174-0.01839 0.0261-0.01426 0.021-0.02852 0.0418-0.04241 0.0629-0.01464 0.0218-0.02909 0.0439-0.04316 0.0659-0.0053 8e-3 -0.01051 0.0163-0.01557 0.0244-0.48134 0.75495-0.73918 1.6112-0.7739 2.4746-0.0013 0.0336-0.0021 0.0672-0.0028 0.10058-5.63e-4 0.0334-0.0017 0.067-0.0017 0.1004h2.9637c0-0.0334 3e-3 -0.0668 0.0049-0.1004 0.0017-0.0336 0.0021-0.0672 0.0054-0.10058 0.03828-0.38583 0.18728-0.76265 0.447-1.079 0.02102-0.0257 0.04485-0.0499 0.06756-0.0747 0.02233-0.025 0.04335-0.0507 0.06737-0.0747zm6.1148-0.73562c-0.0039-2e-3 -0.0083-5e-3 -0.0122-7e-3 -0.02608-0.016-0.05236-0.0313-0.07882-0.0467-0.0152-9e-3 -0.03059-0.0174-0.04579-0.0261-0.01557-9e-3 -0.03078-0.0173-0.04635-0.0257a16.915 16.915 0 0 0-0.08051-0.0435c-0.0043-2e-3 -0.0084-4e-3 -0.01276-7e-3 -0.17377-0.0908-0.35223-0.17077-0.53445-0.24021-0.0047-2e-3 -0.0094-4e-3 -0.01407-5e-3 -0.03978-0.0148-0.07957-0.0297-0.11973-0.0435a5.012 5.012 0 0 0-0.99853-0.23702l-0.04166-6e-3c-0.01407-2e-3 -0.02796-3e-3 -0.04185-4e-3 -0.02683-3e-3 -0.05348-6e-3 -0.08051-9e-3 -0.0073-7.5e-4 -0.01483-1e-3 -0.02252-2e-3 -0.03171-3e-3 -0.0638-6e-3 -0.09571-8e-3l-0.03734-2e-3c-0.02721-2e-3 -0.05498-4e-3 -0.08219-5e-3 -0.01464-7.6e-4 -0.02928-1e-3 -0.04373-2e-3v2.9704c0.15238 0.0158 0.30344 0.0482 0.45 0.098l2.1864-2.186c-0.08126-0.0563-0.16326-0.11109-0.24771-0.16232z" fill="#4d5a31"/>
  <path d="m-43.698-135.52c-0.03359 7.5e-4 -0.06718 7.5e-4 -0.10058 2e-3 -0.20961 8e-3 -0.41885 0.0298-0.6264 0.0647-0.0045 7.5e-4 -9e-3 1e-3 -0.0137 2e-3 -0.02909 5e-3 -0.05799 0.0103-0.08688 0.0158-0.01633 3e-3 -0.03284 6e-3 -0.04935 9e-3 -0.01708 3e-3 -0.03397 7e-3 -0.05104 0.0107-0.02815 6e-3 -0.0563 0.012-0.08426 0.0186-0.0053 9.3e-4 -0.01032 2e-3 -0.01539 3e-3a5.0192 5.0192 0 0 0-1.1959 0.44588c-0.02458 0.0131-0.0486 0.028-0.07319 0.0413-0.02927 0.0161-0.05855 0.0327-0.08764 0.0494-0.02158 0.0126-0.04354 0.024-0.06512 0.0368-1.88e-4 1.9e-4 -5.63e-4 3.7e-4 -7.51e-4 3.7e-4 -0.0015 9.4e-4 -3e-3 2e-3 -0.0045 3e-3 -0.0056 4e-3 -0.01145 6e-3 -0.01708 0.01l1.87e-4 3.7e-4 0.05198 0.0861 1.4778 2.4532c0.0289-0.0173 0.05836-0.0332 0.08782-0.049 0.02965-0.016 0.05967-0.031 0.08989-0.0452a2.0126 2.0126 0 0 1 0.66356-0.18597c0.0334-3e-3 0.06681-6e-3 0.1004-8e-3 0.0334-2e-3 0.06699-3e-3 0.10058-3e-3v-2.9633c-0.03359 0-0.06699 1e-3 -0.1004 2e-3z" fill="#6ba43a"/>
  <path d="m-38.618-130.78c-0.0015-0.0266-3e-3 -0.0531-0.0049-0.0799a1.4149 1.4149 0 0 0-0.0026-0.0398c-0.0021-0.0313-0.0047-0.0627-0.0077-0.094-5.63e-4 -8e-3 -0.0013-0.0161-0.0021-0.0242-0.0034-0.0351-0.0071-0.07-0.01126-0.1049-3.76e-4 -3e-3 -5.63e-4 -6e-3 -9.39e-4 -8e-3l-5.63e-4 -4e-3c-0.0045-0.0377-0.0096-0.0754-0.01483-0.11297l-5.63e-4 -4e-3a5.0002 5.0002 0 0 0-0.15313-0.70052c-5.63e-4 -2e-3 -9.39e-4 -3e-3 -0.0015-5e-3 -0.0107-0.0358-0.02177-0.0713-0.03284-0.10678-0.0017-5e-3 -0.0032-9e-3 -0.0047-0.0141-0.01051-0.0321-0.02121-0.064-0.03228-0.0959l-9e-3 -0.0259c-0.0098-0.0276-0.01989-0.0552-0.03002-0.0828-0.0051-0.0131-0.0099-0.0263-0.0152-0.0392-0.0086-0.0229-0.01745-0.0456-0.02665-0.0681-0.0071-0.0182-0.01445-0.036-0.02177-0.0537-0.0073-0.0178-0.01483-0.0353-0.02214-0.0529-0.0098-0.0225-0.0197-0.045-0.02965-0.0674-0.0056-0.0126-0.01126-0.0253-0.01708-0.0381-0.0122-0.0267-0.02477-0.0535-0.03734-0.0801-0.0039-8e-3 -0.0079-0.0161-0.01182-0.0242-0.01464-0.0304-0.02965-0.061-0.04504-0.091-0.0021-4e-3 -0.0043-8e-3 -0.0064-0.0126-0.01708-0.0332-0.03472-0.0666-0.05236-0.0994-7.5e-4 -1e-3 -0.0013-2e-3 -0.0021-4e-3a5.0103 5.0103 0 0 0-0.28355-0.46014l-2.187 2.187c0.04973 0.14656 0.08201 0.29762 0.09777 0.44981h2.971c-7.5e-4 -0.0148-0.0011-0.0297-0.0019-0.0441z" fill="#4d5a31"/>
  <path d="m-41.576-130.54c0 0.0336-0.0032 0.067-0.0049 0.10058-0.0017 0.0336-0.0023 0.0672-0.0056 0.1004-0.03828 0.38601-0.18709 0.76283-0.44681 1.0794-0.02102 0.0257-0.04485 0.0497-0.06756 0.0747-0.02252 0.0248-0.04335 0.0505-0.06737 0.0745l2.0956 2.0952c0.02383-0.0238 0.04616-0.0484 0.06943-0.0726s0.04691-0.048 0.06943-0.0726c0.155-0.16796 0.29688-0.3436 0.42448-0.52619 0.0053-7e-3 0.0099-0.0144 0.01501-0.0216 0.01557-0.0223 0.03059-0.045 0.04598-0.0675 0.01332-0.0203 0.02665-0.0404 0.0396-0.0608 0.0066-0.01 0.01295-0.0199 0.01914-0.0297 0.48059-0.75458 0.73787-1.6099 0.7724-2.4728 0.0013-0.0334 0.0021-0.067 0.0026-0.10059 7.51e-4 -0.0334 0.0017-0.0668 0.0017-0.10039z" fill="#6ba43a"/>
  <path d="m-37.732-136.4c-0.54214-0.54215-1.4211-0.54215-1.9633 0-0.43255 0.43236-0.51906 1.0788-0.26141 1.5979l-3.0243 3.0241c-0.51906-0.25747-1.1657-0.17114-1.5983 0.26122-0.54214 0.54214-0.54196 1.4211 0 1.9633 0.54233 0.54214 1.4215 0.54195 1.9637 0 0.43255-0.43256 0.51887-1.079 0.26122-1.5981l3.0243-3.0239c0.51925 0.25747 1.1655 0.17115 1.5981-0.2614 0.54214-0.54196 0.54214-1.421 0-1.9631z" fill="#424143"/>
 </g>
</svg>
