<svg width="32" height="35.989" fill="none" version="1.1" viewBox="204.92 153.58 9.6975 12.388" xmlns="http://www.w3.org/2000/svg">
 <g stroke-width=".014539">
  <path d="m215.28 157.22c0-0.20699-0.0441-0.39363-0.13574-0.54973-0.0882-0.15609-0.22057-0.28504-0.39701-0.38684-1.466-0.84496-2.9353-1.6899-4.4012-2.5349-0.39703-0.22736-0.7771-0.22057-1.1707 0.0102-0.58367 0.34274-3.5088 2.0191-4.3775 2.5247-0.35971 0.20699-0.53277 0.52597-0.53277 0.93997v5.1036c0 0.2036 0.0441 0.38345 0.12895 0.53955 0.0882 0.1595 0.22397 0.29523 0.40382 0.40042 0.8721 0.50562 3.7938 2.1786 4.3775 2.5247 0.39362 0.2307 0.77707 0.24088 1.1707 0.0102 1.4659-0.84835 2.9353-1.6899 4.4012-2.5349 0.18323-0.10519 0.31558-0.23754 0.4038-0.40042 0.0848-0.1561 0.12895-0.33595 0.12895-0.53955z" fill="#9a4993"/>
  <path d="m209.79 159.75-5.3989 3.1083c0.0882 0.15949 0.22397 0.29523 0.40382 0.40043 0.8721 0.50561 3.7938 2.1786 4.3775 2.5247 0.39362 0.23076 0.77709 0.24094 1.1707 0.0102 1.4659-0.84834 2.9353-1.6899 4.4012-2.5348 0.18323-0.1052 0.31558-0.23753 0.4038-0.40043z" fill="#6a1577"/>
  <path d="m208.19 160.67c0.3156 0.54973 0.90604 0.91961 1.5813 0.91961 0.68207 0 1.2759-0.37327 1.5881-0.92979l-1.5711-0.90943z" fill="#6a1577"/>
  <path d="m215.28 157.22c0-0.20699-0.0441-0.39363-0.13574-0.54973l-5.3582 3.0846 5.3649 3.1084c0.0848-0.15611 0.12896-0.33595 0.12896-0.53956z" fill="#813084"/>
 </g>
 <g transform="matrix(.014539 0 0 .014539 201.29 151.28)" fill="#fff">
  <path d="m692.73 644.88c-21.472 38.044-62.317 63.952-109.23 63.952-46.68 0-87.291-25.441-108.76-63.252-10.503-18.438-16.572-39.444-16.572-62.084 0-69.32 56.016-125.34 125.34-125.34 46.213 0 86.592 25.207 108.3 62.551l109.46-63.018c-43.645-75.154-124.87-125.8-218-125.8-139.11 0-251.6 112.73-251.6 251.6 0 45.513 12.136 88.459 33.376 125.34 43.412 75.388 125.1 126.27 218.46 126.27 93.594 0 175.28-51.114 218.7-126.97zm138.41-120.9h-24.974v120.67h24.974zm55.316 0h-24.974v120.67h24.974z"/>
  <path d="m906.76 544.29h-120.67v24.974h120.67zm0 55.082h-120.67v24.974h120.67z"/>
 </g>
</svg>
