<?xml version="1.0" encoding="UTF-8"?>
<svg width="32" height="45.093" enable-background="new 221.807 89.47 440 621.061" version="1.1" viewBox="221.81 89.47 32 45.093" xmlns="http://www.w3.org/2000/svg" xmlns:cc="http://creativecommons.org/ns#" xmlns:dc="http://purl.org/dc/elements/1.1/" xmlns:rdf="http://www.w3.org/1999/02/22-rdf-syntax-ns#">
 <metadata>
  <rdf:RDF>
   <cc:Work rdf:about="">
    <dc:format>image/svg+xml</dc:format>
    <dc:type rdf:resource="http://purl.org/dc/dcmitype/StillImage"/>
    <dc:title/>
   </cc:Work>
  </rdf:RDF>
 </metadata>
 <defs>
  <filter id="filter39" x="-.0012805" y="-.001129" width="1.0026" height="1.0023" color-interpolation-filters="sRGB">
   <feGaussianBlur stdDeviation="0.234752"/>
  </filter>
 </defs>
 <filter x="-.05" y="-.05" width="1.5" height="1.5">
  <feFlood flood-opacity=".5" result="floodFill"/>
  <feComposite in="floodFill" in2="SourceAlpha" operator="in" result="coloredAlpha"/>
  <feGaussianBlur in="coloredAlpha" result="blur" stdDeviation="8"/>
  <feComposite in="blur" in2="SourceGraphic" operator="out" result="maskedOffsetBlur"/>
  <feMerge>
   <feMergeNode in="maskedOffsetBlur"/>
   <feMergeNode in="SourceGraphic"/>
  </feMerge>
 </filter>
  <path d="m261.85 660.65-40.042-449.12h440l-40.086 449.05-180.18 49.954z" fill="#e44d26" filter="url(#filter39)"/>
  <path d="m441.81 672.35 145.6-40.367 34.258-383.74h-179.85z" fill="#f16529"/>
  <path d="m441.81 414.82h-72.888l-5.035-56.406h77.923v-55.084h-138.12l1.32 14.778 13.538 151.79h123.27zm0 143.06-0.242 0.066-61.346-16.566-3.922-43.93h-55.294l7.718 86.489 112.83 31.323 0.252-0.071z" fill="#ebebeb"/>
  <path d="m262.74 89.47h27.992v27.656h25.606v-27.656h27.993v83.75h-27.993v-28.044h-25.606v28.044h-27.99zm118.4 27.774h-24.642v-27.774h77.293v27.774h-24.654v55.976h-27.996v-55.976zm64.916-27.774h29.19l17.955 29.428 17.938-29.428h29.2v83.75h-27.882v-41.512l-19.259 29.778h-0.481l-19.272-29.778v41.512h-27.39v-83.75zm108.21 0h28v56.068h39.368v27.682h-67.368z"/>
  <path d="m441.62 414.82v55.082h67.83l-6.395 71.44-61.435 16.58v57.307l112.92-31.294 0.826-9.309 12.946-145.01 1.344-14.792h-14.842zm0-111.49v55.084h133.05l1.103-12.382 2.51-27.924 1.318-14.778z" fill="#fff"/>
</svg>
