<svg width="48" height="48" viewBox="0 0 48 48" xmlns="http://www.w3.org/2000/svg">
    <path fill-rule="evenodd" clip-rule="evenodd" d="M8.7 22.65C8.7 15.4979 14.4979 9.7 21.65 9.7C28.8021 9.7 34.6 15.4979 34.6 22.65C34.6 26.1391 33.2201 29.3059 30.9764 31.6345C30.9131 31.6831 30.8523 31.7364 30.7944 31.7944C30.7364 31.8523 30.6831 31.9131 30.6345 31.9764C28.3059 34.2202 25.1391 35.6 21.65 35.6C14.4979 35.6 8.7 29.8021 8.7 22.65ZM32.0427 35.659C29.1943 37.9375 25.5813 39.3 21.65 39.3C12.4544 39.3 5 31.8455 5 22.65C5 13.4545 12.4544 6 21.65 6C30.8455 6 38.3 13.4545 38.3 22.65C38.3 26.5813 36.9375 30.1943 34.659 33.0427L41.4581 39.8419C42.1806 40.5643 42.1806 41.7357 41.4581 42.4581C40.7357 43.1806 39.5643 43.1806 38.8419 42.4581L32.0427 35.659Z" fill="#7878AB" />
</svg>
