<svg enable-background="new 0 0 306 344.35" version="1.1" viewBox="0 0 32 36.01" xml:space="preserve" xmlns="http://www.w3.org/2000/svg">
    <g stroke-width=".10458">
        <path d="m31.593 27.008c0.25108-0.43493 0.40711-0.92497 0.40711-1.365v-15.275c0-0.44005-0.15582-0.92999-0.40701-1.3649l-15.593 9.0026z" fill="#00599c" />
        <path d="m17.386 35.68 13.229-7.6375c0.38107-0.22003 0.72742-0.59995 0.97851-1.035l-15.593-9.0026-15.593 9.0027c0.25108 0.43493 0.59754 0.81496 0.97851 1.0349l13.229 7.6375c0.76204 0.44005 2.0092 0.44005 2.7712 0z" fill="#004482" />
        <path d="m31.593 9.0026c-0.25119-0.43503-0.59765-0.81495-0.97861-1.035l-13.229-7.6375c-0.76204-0.44005-2.0092-0.44005-2.7712 0l-13.229 7.6375c-0.76214 0.43995-1.3856 1.52-1.3856 2.4v15.275c0 0.44005 0.15592 0.93009 0.40711 1.365l15.593-9.0026z" fill="#659ad2" />
    </g>
    <g transform="scale(.10458)" fill="#fff">
        <path d="m153 274.18c-56.243 0-102-45.757-102-102s45.757-102 102-102c36.292 0 70.139 19.53 88.331 50.968l-44.143 25.544c-9.105-15.736-26.038-25.512-44.188-25.512-28.122 0-51 22.878-51 51 0 28.121 22.878 51 51 51 18.152 0 35.085-9.776 44.191-25.515l44.143 25.543c-18.192 31.441-52.04 50.972-88.334 50.972z" />


        <polygon points="232.33 155.18 232.33 166.51 221 166.51 221 177.84 232.33 177.84 232.33 189.18 243.67 189.18 243.67 177.84 255 177.84 255 166.51 243.67 166.51 243.67 155.18" />


        <polygon points="274.83 155.18 274.83 166.51 263.5 166.51 263.5 177.84 274.83 177.84 274.83 189.18 286.17 189.18 286.17 177.84 297.5 177.84 297.5 166.51 286.17 166.51 286.17 155.18" />
    </g>
</svg>
