<svg version="1.1" viewBox="0 0 32 32" xmlns="http://www.w3.org/2000/svg">
    <path style="fill:#1b1b1f" d="m28.063 6.5299-10.105-5.9982a3.8071 3.8071 0 0 0-3.8812 0l-10.105 5.9982a4.0294 4.0294 0 0 0-1.9653 3.4719v11.996a4.0294 4.0294 0 0 0 1.9476 3.4719l10.105 5.9982a3.8071 3.8071 0 0 0 3.8812 0l10.105-5.9982a4.0294 4.0294 0 0 0 1.9476-3.4719v-11.996a4.0294 4.0294 0 0 0-1.93-3.4719zm-7.8259 18.732v0.86092a0.31755 0.31755 0 0 1-0.14819 0.26463l-0.51161 0.29285c-0.08115 0.04234-0.14819 0-0.14819-0.11291v-0.8468a1.6619 1.6619 0 0 1-1.1644 0.11291 0.15525 0.15525 0 0 1-0.05645-0.19053l0.18347-0.77976a0.32461 0.32461 0 0 1 0.10232-0.16936 0.20464 0.20464 0 0 1 0.0494-0.03528 0.10232 0.10232 0 0 1 0.08115 0 1.4113 1.4113 0 0 0 1.0585-0.13408 1.4113 1.4113 0 0 0 0.79035-1.2102c0-0.43752-0.23993-0.62099-0.81858-0.62452-0.7339 0-1.4113-0.14113-1.429-1.2243a3.1367 3.1367 0 0 1 1.1855-2.3993v-0.8715a0.31402 0.31402 0 0 1 0.14819-0.26815l0.49397-0.31402c0.08115-0.04234 0.14819 0 0.14819 0.11644v0.8715a1.6089 1.6089 0 0 1 0.96677-0.11644 0.15525 0.15525 0 0 1 0.06351 0.20112l-0.17289 0.77271a0.33166 0.33166 0 0 1-0.08821 0.15525 0.20464 0.20464 0 0 1-0.0494 0.03881 0.11644 0.11644 0 0 1-0.07409 0 1.2808 1.2808 0 0 0-0.93148 0.15172 1.1714 1.1714 0 0 0-0.70567 1.0373c0 0.39518 0.20817 0.51514 0.90679 0.52925 0.93501 0 1.3372 0.4234 1.3478 1.3619a3.3449 3.3449 0 0 1-1.2279 2.5298zm5.2925-1.4502a0.20112 0.20112 0 0 1-0.07762 0.19406l-2.5545 1.5525a0.074095 0.074095 0 0 1-0.11996-0.074095v-0.6598a0.18347 0.18347 0 0 1 0.11644-0.1623l2.5157-1.5066a0.074095 0.074095 0 0 1 0.11996 0.07409zm1.7642-14.752-9.5618 5.9065c-1.1926 0.70567-2.0711 1.4784-2.0711 2.9144v11.778c0 0.86092 0.35284 1.4113 0.88209 1.5807a3.0944 3.0944 0 0 1-0.52925 0.05293 3.1296 3.1296 0 0 1-1.5948-0.44104l-10.105-5.9982a3.3237 3.3237 0 0 1-1.6019-2.8544v-11.996a3.3237 3.3237 0 0 1 1.6019-2.858l10.105-5.9982a3.1155 3.1155 0 0 1 3.1755 0l10.105 5.9982a3.3025 3.3025 0 0 1 1.5525 2.3111c-0.32814-0.71273-1.0832-0.91031-1.9618-0.39518z" stroke-width=".35284" />
</svg>
